{"title":"Marion Bridge 2002 DVDRip XviD titler","uid":8421484,"size":977575424,"categoryP":"video","categoryS":"movies","magnet":"?xt=urn:btih:e436ad4c17d61cf6217b54b50eeb3dcffb36931b&amp;dn=Marion+Bridge+2002+DVDRip+XviD+titler&amp;tr=udp%3A%2F%2Ftracker.openbittorrent.com%3A80&amp;tr=udp%3A%2F%2Fopen.demonii.com%3A1337&amp;tr=udp%3A%2F%2Ftracker.coppersurfer.tk%3A6969&amp;tr=udp%3A%2F%2Fexodus.desync.com%3A6969","seeders":0,"leechers":1,"uploader":"movieZ.freak","files":3,"time":1367205226,"description":"SOURCE: DVD-R\n &lt;a href=&quot;\nhttp://www.imdb.com/title/tt0329355/&quot; rel=&quot;nofollow&quot; target=&quot;_NEW&quot;&gt;\nhttp://www.imdb.com/title/tt0329355/&lt;/a&gt;\n\n\n-SAMPLE: Yes\n\n-SUBTITLE: No\n\n-LANGUAGE: English\n\n\nDIRECTOR: Wiebke von Carolsfeld\n\n\nCAST:\n------\nMolly Parker, Ellen Page, Rebecca Jenkins, Stacy Smith, Marguerite McNeil, Hollis McLaren\n\n\nPLOT:\n------------\nThee adult sisters are forced to face the scars of their past as they wait at their mother's deathbed in this drama written by noted Canadian actor Daniel MacIvor. Agnes (Molly Parker) grew up in Sydney, a small town in Nova Scotia; hoping to get away from memories of an unhappy childhood, Agnes moved to Toronto, where she found more than her share of disappointments. When Agnes receives word that her mother Rose (Marguerite McNeil) is in failing health, she returns to Sydney for the first time in years, where she's met by her sisters, Theresa (Rebecca Jenkins), who has been turned bitter by a bad divorce, and Louise (Stacy Smith), who prefers withdrawing into herself to dealing with the outside world. As the four women attempt to make peace with one another, Agnes decides it's time they faced several unpleasant truths, including the abuse they faced at the hands of her father. The first directorial effort from Wiebke Von Carolsfeld, Marion Bridge was screened in competition at the 2002 Toronto Film Festival as part of the &quot;Perspective Canada&quot; series.\n\n\nGeneral\n------------\nFormat : AVI\nFormat/Info : Audio Video Interleave\nFile size : 908 MiB\nDuration : 1h 30mn\nOverall bit rate : 1406 Kbps\nWriting application : VirtualDubMod 1.5.4.1\nWriting library : VirtualDub build 32842\n\n\nVideo\n---------\nFormat : MPEG-4 Visual\nFormat profile : Advanced Simple@L4\nFormat settings, BVOP : 2\nFormat settings, QPel : No\nFormat settings, GMC : No warppoints\nFormat settings, Matrix : Default (H.263)\nCodec ID : XVID\nCodec ID/Hint : XviD\nDuration : 1h 30mn\nBit rate : 1269 Kbps\nWidth : 720 pixels\nHeight : 400 pixels\nDisplay aspect ratio : 16:9\nFrame rate : 25.000 fps\nColor space : YUV\nChroma subsampling : 4:2:0\nBit depth : 8 bits\nScan type : Progressive\nCompression mode : Lossy\nBits/(Pixel*Frame) : 0.176\nStream size : 819 MiB (90%)\nWriting library : XviD 64\n\n\nAudio\n--------\nFormat : MPEG Audio\nFormat version : Version 1\nFormat profile : Layer 3\nMode : Joint stereo\nMode extension : MS Stereo\nCodec ID : 55\nCodec ID/Hint : MP3\nDuration : 1h 30mn\nBit rate mode : Constant\nBit rate : 128 Kbps\nChannel(s) : 2 channels\nSampling rate : 48.0 KHz\nCompression mode : Lossy\nStream size : 82.7 MiB (9%)\nAlignment : Aligned on interleaves\nInterleave, duration : 40 ms (1.00 video frame)\nInterleave, preload duration : 504 ms\nWriting library : LAME3.99r","torrent":{"xt":"urn:btih:e436ad4c17d61cf6217b54b50eeb3dcffb36931b","amp;dn":"Marion+Bridge+2002+DVDRip+XviD+titler","amp;tr":["udp%3A%2F%2Ftracker.openbittorrent.com%3A80","udp%3A%2F%2Fopen.demonii.com%3A1337","udp%3A%2F%2Ftracker.coppersurfer.tk%3A6969","udp%3A%2F%2Fexodus.desync.com%3A6969"],"infoHash":"e436ad4c17d61cf6217b54b50eeb3dcffb36931b","infoHashBuffer":{"type":"Buffer","data":[228,54,173,76,23,214,28,246,33,123,84,181,14,235,61,207,251,54,147,27]},"announce":[],"urlList":[]}}